<svg id="svg" version="1.1" xmlns="http://www.w3.org/2000/svg" xmlns:xlink="http://www.w3.org/1999/xlink" width="400" height="400" viewBox="0, 0, 400,400"><g id="svgg"><path id="path0" d="M39.100 177.609 C 19.159 179.313,5.930 199.758,12.394 218.883 C 15.902 229.261,24.603 236.960,35.615 239.432 L 37.700 239.900 200.200 239.900 C 358.006 239.900,362.752 239.889,364.500 239.527 C 381.464 236.011,392.656 219.532,389.308 203.000 C 389.252 202.725,389.154 202.230,389.090 201.900 C 386.778 190.055,376.866 180.611,363.851 177.851 C 362.174 177.495,43.213 177.258,39.100 177.609 M362.522 183.489 C 370.437 184.805,377.548 189.958,381.196 197.022 C 389.066 212.259,380.203 230.350,363.100 233.962 C 360.920 234.423,40.313 234.493,37.900 234.033 C 20.957 230.808,11.781 213.355,18.901 197.900 C 22.285 190.555,29.777 184.873,37.871 183.514 C 40.288 183.109,360.083 183.084,362.522 183.489 M38.800 186.505 C 20.488 189.377,13.164 211.537,26.214 224.586 C 30.396 228.769,34.841 230.748,41.095 231.212 C 46.384 231.604,360.558 231.351,362.429 230.953 C 368.054 229.757,372.768 226.961,375.992 222.910 C 386.904 209.197,378.965 189.107,361.601 186.489 C 358.852 186.075,41.444 186.091,38.800 186.505 M362.300 189.333 C 367.122 190.474,370.634 192.590,373.677 196.189 C 383.691 208.033,376.458 226.266,360.900 228.397 C 359.748 228.555,314.482 228.600,199.200 228.558 L 39.100 228.500 37.500 228.035 C 31.024 226.154,25.987 221.811,23.733 216.166 C 18.724 203.622,27.237 190.153,40.900 189.006 C 41.890 188.923,114.205 188.867,201.600 188.881 L 360.500 188.907 362.300 189.333 M285.558 193.510 C 285.203 193.703,284.780 194.304,284.332 195.252 C 283.718 196.551,281.731 200.815,274.920 215.459 C 272.502 220.659,272.416 221.056,273.480 222.120 L 274.160 222.800 276.953 222.800 C 280.425 222.800,280.332 222.861,281.887 219.519 L 283.059 217.000 286.505 217.000 C 289.027 217.000,290.002 217.067,290.141 217.250 C 290.245 217.388,290.729 218.436,291.215 219.579 C 291.702 220.723,292.354 221.915,292.665 222.229 L 293.231 222.800 296.100 222.800 L 298.969 222.800 299.585 222.185 C 300.343 221.426,300.414 220.183,299.777 218.800 C 299.232 217.618,292.849 203.405,290.569 198.300 C 288.295 193.207,287.506 192.453,285.558 193.510 M152.477 195.218 C 152.117 196.204,152.051 196.265,151.000 196.592 C 150.395 196.780,149.427 197.175,148.849 197.471 L 147.799 198.007 147.007 197.604 C 145.927 197.052,145.924 197.053,144.591 198.325 C 143.162 199.688,143.064 199.949,143.594 200.988 L 144.007 201.799 143.471 202.849 C 143.175 203.427,142.780 204.391,142.592 204.991 C 142.267 206.028,142.203 206.098,141.275 206.408 L 140.300 206.734 140.243 208.739 L 140.187 210.745 141.218 211.123 C 142.210 211.486,142.263 211.543,142.598 212.632 C 142.789 213.254,143.188 214.198,143.485 214.729 L 144.024 215.694 143.582 216.638 L 143.140 217.583 143.670 218.278 C 143.961 218.660,144.596 219.297,145.079 219.694 L 145.959 220.415 146.867 219.974 L 147.775 219.533 149.037 220.154 C 149.732 220.496,150.721 220.888,151.234 221.025 C 152.100 221.256,152.187 221.339,152.413 222.145 C 152.717 223.232,153.031 223.401,154.737 223.397 C 156.690 223.393,156.855 223.317,157.202 222.258 C 157.494 221.365,157.547 221.321,158.850 220.882 C 159.591 220.632,160.559 220.224,161.001 219.975 L 161.806 219.523 162.716 219.966 L 163.627 220.408 164.196 220.003 C 164.509 219.780,165.176 219.141,165.678 218.582 L 166.591 217.567 166.121 216.643 L 165.652 215.719 166.307 214.409 C 166.667 213.689,167.062 212.724,167.184 212.265 C 167.387 211.506,167.496 211.400,168.376 211.108 L 169.345 210.786 169.445 209.743 C 169.662 207.482,169.423 206.757,168.354 206.426 C 167.456 206.147,167.393 206.080,167.105 205.088 C 166.938 204.513,166.533 203.532,166.204 202.907 L 165.606 201.772 166.003 200.994 C 166.564 199.895,166.542 199.829,165.145 198.444 C 163.741 197.053,163.699 197.039,162.593 197.604 L 161.801 198.007 160.751 197.471 C 160.173 197.175,159.209 196.780,158.609 196.592 C 157.572 196.267,157.502 196.203,157.192 195.275 L 156.866 194.300 154.861 194.243 L 152.855 194.187 152.477 195.218 M189.500 194.496 C 178.574 196.906,174.205 210.460,181.734 218.592 C 186.145 223.356,193.155 224.634,199.163 221.769 C 201.035 220.877,201.198 220.514,201.199 217.240 C 201.201 212.629,199.915 211.694,196.601 213.899 C 191.569 217.248,186.300 214.640,186.300 208.800 C 186.300 202.943,191.662 200.256,196.670 203.605 C 199.958 205.805,201.282 204.714,201.166 199.897 L 201.100 197.153 200.349 196.504 C 198.200 194.649,193.095 193.704,189.500 194.496 M254.100 194.487 C 242.511 197.199,238.591 211.365,247.191 219.455 C 251.552 223.557,258.295 224.472,263.786 221.707 C 265.624 220.781,265.800 220.388,265.800 217.200 C 265.800 212.849,264.226 211.625,261.370 213.755 C 256.603 217.312,250.812 214.667,250.739 208.900 C 250.666 203.067,256.481 200.236,261.408 203.706 C 263.370 205.088,265.080 204.815,265.613 203.036 C 266.000 201.742,265.781 197.537,265.292 196.882 C 263.836 194.934,257.752 193.632,254.100 194.487 M37.419 194.853 C 36.366 195.394,36.105 196.059,36.041 198.364 C 35.946 201.838,36.630 202.599,39.850 202.600 L 41.600 202.600 41.600 211.891 C 41.600 223.586,41.304 222.800,45.710 222.800 L 48.240 222.800 48.920 222.120 L 49.600 221.440 49.600 212.020 L 49.600 202.600 51.306 202.600 C 54.530 202.600,55.000 202.073,55.000 198.454 C 55.000 194.434,55.404 194.599,45.560 194.603 C 39.879 194.605,37.776 194.670,37.419 194.853 M64.819 194.853 C 63.439 195.562,63.507 194.904,63.440 208.365 C 63.375 221.281,63.399 221.656,64.332 222.389 C 64.837 222.787,65.092 222.800,72.247 222.800 L 79.640 222.800 80.320 222.120 L 81.000 221.440 81.000 218.965 C 81.000 215.115,80.835 215.000,75.306 215.000 L 71.600 215.000 71.600 213.300 L 71.600 211.600 75.310 211.600 C 80.658 211.600,80.879 211.428,80.766 207.362 L 80.700 204.966 80.047 204.383 L 79.394 203.800 75.497 203.800 L 71.600 203.800 71.600 203.200 L 71.600 202.600 75.306 202.600 C 80.797 202.600,81.000 202.452,81.000 198.454 C 81.000 194.467,81.299 194.599,72.260 194.603 C 67.134 194.605,65.173 194.671,64.819 194.853 M92.153 194.913 C 90.973 195.553,91.000 195.222,91.000 208.910 L 91.000 221.440 91.680 222.120 L 92.360 222.800 98.390 222.800 C 106.269 222.800,106.000 222.940,106.000 218.835 C 106.000 215.287,105.671 215.000,101.610 215.000 L 99.000 215.000 99.000 205.545 C 99.000 195.178,99.041 195.542,97.798 194.899 C 96.994 194.483,92.926 194.493,92.153 194.913 M115.684 194.963 C 114.571 195.667,114.587 195.455,114.646 209.069 L 114.700 221.633 115.353 222.216 L 116.006 222.800 118.719 222.800 L 121.431 222.800 122.015 222.215 L 122.600 221.631 122.600 217.444 L 122.600 213.258 123.850 213.137 C 134.218 212.136,135.606 197.549,125.577 194.990 C 123.809 194.539,116.387 194.519,115.684 194.963 M212.063 194.990 C 210.972 195.655,211.000 195.292,211.000 208.677 C 211.000 224.073,210.630 222.800,215.110 222.800 L 217.640 222.800 218.320 222.120 L 219.000 221.440 219.000 216.620 L 219.000 211.800 221.900 211.800 L 224.800 211.800 224.800 216.491 C 224.800 222.903,224.733 222.800,228.910 222.800 L 231.440 222.800 232.120 222.120 L 232.800 221.440 232.800 208.910 C 232.800 193.498,233.108 194.600,228.800 194.600 C 224.973 194.600,224.930 194.657,224.800 199.880 L 224.700 203.900 221.850 203.955 L 219.000 204.011 219.000 200.219 C 219.000 196.033,218.910 195.583,217.955 195.001 C 217.002 194.420,213.010 194.412,212.063 194.990 M309.663 194.990 C 309.312 195.204,308.930 195.557,308.813 195.776 C 308.494 196.372,308.519 221.003,308.839 221.706 C 309.314 222.748,309.667 222.800,316.210 222.800 L 322.240 222.800 322.920 222.120 L 323.600 221.440 323.600 219.110 C 323.600 215.344,323.224 215.000,319.106 215.000 L 316.600 215.000 316.600 205.713 C 316.600 195.752,316.588 195.631,315.555 195.001 C 314.602 194.420,310.610 194.412,309.663 194.990 M333.353 194.913 C 332.173 195.553,332.200 195.222,332.200 208.910 L 332.200 221.440 332.880 222.120 L 333.560 222.800 339.590 222.800 C 347.469 222.800,347.200 222.940,347.200 218.835 C 347.200 215.308,346.839 215.000,342.706 215.000 L 340.200 215.000 340.200 205.545 C 340.200 195.178,340.241 195.542,338.998 194.899 C 338.194 194.483,334.126 194.493,333.353 194.913 M357.300 194.791 C 357.080 194.882,356.675 195.198,356.400 195.494 L 355.900 196.032 355.840 208.266 C 355.763 223.885,355.461 222.800,359.882 222.800 C 364.332 222.800,364.000 223.938,364.000 208.687 C 364.000 195.232,364.029 195.544,362.704 194.915 C 361.978 194.571,358.051 194.480,357.300 194.791 M157.800 202.237 C 164.790 205.498,162.504 215.903,154.800 215.893 C 147.831 215.885,144.956 206.847,150.670 202.912 C 152.776 201.461,155.570 201.197,157.800 202.237 " stroke="none" fill="#2d2d2d" fill-rule="evenodd"></path><path id="path1" d="M37.871 183.514 C 29.777 184.873,22.285 190.555,18.901 197.900 C 11.781 213.355,20.957 230.808,37.900 234.033 C 40.313 234.493,360.920 234.423,363.100 233.962 C 380.203 230.350,389.066 212.259,381.196 197.022 C 377.548 189.958,370.437 184.805,362.522 183.489 C 360.083 183.084,40.288 183.109,37.871 183.514 M361.601 186.489 C 378.965 189.107,386.904 209.197,375.992 222.910 C 372.768 226.961,368.054 229.757,362.429 230.953 C 360.558 231.351,46.384 231.604,41.095 231.212 C 21.011 229.723,12.247 206.259,26.633 192.492 C 30.013 189.258,34.114 187.240,38.800 186.505 C 41.444 186.091,358.852 186.075,361.601 186.489 M40.900 189.006 C 27.237 190.153,18.724 203.622,23.733 216.166 C 25.987 221.811,31.024 226.154,37.500 228.035 L 39.100 228.500 199.200 228.558 C 314.482 228.600,359.748 228.555,360.900 228.397 C 376.458 226.266,383.691 208.033,373.677 196.189 C 370.634 192.590,367.122 190.474,362.300 189.333 L 360.500 188.907 201.600 188.881 C 114.205 188.867,41.890 188.923,40.900 189.006 M288.189 193.750 C 288.588 194.120,289.369 195.613,290.569 198.300 C 292.849 203.405,299.232 217.618,299.777 218.800 C 300.414 220.183,300.343 221.426,299.585 222.185 L 298.969 222.800 296.100 222.800 L 293.231 222.800 292.665 222.229 C 292.354 221.915,291.702 220.723,291.215 219.579 C 290.729 218.436,290.245 217.388,290.141 217.250 C 290.002 217.067,289.027 217.000,286.505 217.000 L 283.059 217.000 281.887 219.519 C 280.332 222.861,280.425 222.800,276.953 222.800 L 274.160 222.800 273.480 222.120 C 272.416 221.056,272.502 220.659,274.920 215.459 C 281.731 200.815,283.718 196.551,284.332 195.252 C 285.331 193.139,286.877 192.537,288.189 193.750 M157.192 195.275 C 157.502 196.203,157.572 196.267,158.609 196.592 C 159.209 196.780,160.173 197.175,160.751 197.471 L 161.801 198.007 162.593 197.604 C 163.699 197.039,163.741 197.053,165.145 198.444 C 166.542 199.829,166.564 199.895,166.003 200.994 L 165.606 201.772 166.204 202.907 C 166.533 203.532,166.938 204.513,167.105 205.088 C 167.393 206.080,167.456 206.147,168.354 206.426 C 169.423 206.757,169.662 207.482,169.445 209.743 L 169.345 210.786 168.376 211.108 C 167.496 211.400,167.387 211.506,167.184 212.265 C 167.062 212.724,166.667 213.689,166.307 214.409 L 165.652 215.719 166.121 216.643 L 166.591 217.567 165.678 218.582 C 165.176 219.141,164.509 219.780,164.196 220.003 L 163.627 220.408 162.716 219.966 L 161.806 219.523 161.001 219.975 C 160.559 220.224,159.591 220.632,158.850 220.882 C 157.547 221.321,157.494 221.365,157.202 222.258 C 156.855 223.317,156.690 223.393,154.737 223.397 C 153.031 223.401,152.717 223.232,152.413 222.145 C 152.187 221.339,152.100 221.256,151.234 221.025 C 150.721 220.888,149.732 220.496,149.037 220.154 L 147.775 219.533 146.867 219.974 L 145.959 220.415 145.079 219.694 C 144.596 219.297,143.961 218.660,143.670 218.278 L 143.140 217.583 143.582 216.638 L 144.024 215.694 143.485 214.729 C 143.188 214.198,142.789 213.254,142.598 212.632 C 142.263 211.543,142.210 211.486,141.218 211.123 L 140.187 210.745 140.243 208.739 L 140.300 206.734 141.275 206.408 C 142.203 206.098,142.267 206.028,142.592 204.991 C 142.780 204.391,143.175 203.427,143.471 202.849 L 144.007 201.799 143.594 200.988 C 143.064 199.949,143.162 199.688,144.591 198.325 C 145.924 197.053,145.927 197.052,147.007 197.604 L 147.799 198.007 148.849 197.471 C 149.427 197.175,150.395 196.780,151.000 196.592 C 152.051 196.265,152.117 196.204,152.477 195.218 L 152.855 194.187 154.861 194.243 L 156.866 194.300 157.192 195.275 M195.313 194.418 C 197.015 194.730,199.474 195.749,200.349 196.504 L 201.100 197.153 201.166 199.897 C 201.282 204.714,199.958 205.805,196.670 203.605 C 191.662 200.256,186.300 202.943,186.300 208.800 C 186.300 214.640,191.569 217.248,196.601 213.899 C 199.915 211.694,201.201 212.629,201.199 217.240 C 201.198 220.514,201.035 220.877,199.163 221.769 C 189.235 226.504,178.000 219.671,178.000 208.900 C 178.000 199.659,186.253 192.756,195.313 194.418 M261.400 194.779 C 265.166 196.002,265.677 196.595,265.768 199.860 C 265.898 204.529,264.424 205.829,261.408 203.706 C 256.481 200.236,250.666 203.067,250.739 208.900 C 250.812 214.667,256.603 217.312,261.370 213.755 C 264.226 211.625,265.800 212.849,265.800 217.200 C 265.800 220.388,265.624 220.781,263.786 221.707 C 252.756 227.262,240.236 217.647,242.901 205.668 C 244.734 197.426,253.555 192.233,261.400 194.779 M53.798 194.899 C 54.860 195.448,55.000 195.862,55.000 198.454 C 55.000 202.073,54.530 202.600,51.306 202.600 L 49.600 202.600 49.600 212.020 L 49.600 221.440 48.920 222.120 L 48.240 222.800 45.710 222.800 C 41.304 222.800,41.600 223.586,41.600 211.891 L 41.600 202.600 39.850 202.600 C 36.630 202.599,35.946 201.838,36.041 198.364 C 36.105 196.059,36.366 195.394,37.419 194.853 C 38.192 194.456,53.022 194.498,53.798 194.899 M79.798 194.899 C 80.860 195.448,81.000 195.862,81.000 198.454 C 81.000 202.452,80.797 202.600,75.306 202.600 L 71.600 202.600 71.600 203.200 L 71.600 203.800 75.497 203.800 L 79.394 203.800 80.047 204.383 L 80.700 204.966 80.766 207.362 C 80.879 211.428,80.658 211.600,75.310 211.600 L 71.600 211.600 71.600 213.300 L 71.600 215.000 75.306 215.000 C 80.835 215.000,81.000 215.115,81.000 218.965 L 81.000 221.440 80.320 222.120 L 79.640 222.800 72.247 222.800 C 65.092 222.800,64.837 222.787,64.332 222.389 C 63.399 221.656,63.375 221.281,63.440 208.365 C 63.507 194.904,63.439 195.562,64.819 194.853 C 65.589 194.457,79.023 194.498,79.798 194.899 M97.798 194.899 C 99.041 195.542,99.000 195.178,99.000 205.545 L 99.000 215.000 101.610 215.000 C 105.671 215.000,106.000 215.287,106.000 218.835 C 106.000 222.940,106.269 222.800,98.390 222.800 L 92.360 222.800 91.680 222.120 L 91.000 221.440 91.000 208.910 C 91.000 195.222,90.973 195.553,92.153 194.913 C 92.926 194.493,96.994 194.483,97.798 194.899 M125.577 194.990 C 135.606 197.549,134.218 212.136,123.850 213.137 L 122.600 213.258 122.600 217.444 L 122.600 221.631 122.015 222.215 L 121.431 222.800 118.719 222.800 L 116.006 222.800 115.353 222.216 L 114.700 221.633 114.646 209.069 C 114.587 195.455,114.571 195.667,115.684 194.963 C 116.387 194.519,123.809 194.539,125.577 194.990 M217.955 195.001 C 218.910 195.583,219.000 196.033,219.000 200.219 L 219.000 204.011 221.850 203.955 L 224.700 203.900 224.800 199.880 C 224.930 194.657,224.973 194.600,228.800 194.600 C 233.108 194.600,232.800 193.498,232.800 208.910 L 232.800 221.440 232.120 222.120 L 231.440 222.800 228.910 222.800 C 224.733 222.800,224.800 222.903,224.800 216.491 L 224.800 211.800 221.900 211.800 L 219.000 211.800 219.000 216.620 L 219.000 221.440 218.320 222.120 L 217.640 222.800 215.110 222.800 C 212.328 222.800,211.650 222.608,211.239 221.706 C 210.919 221.003,210.894 196.372,211.213 195.776 C 211.866 194.555,216.373 194.037,217.955 195.001 M315.555 195.001 C 316.588 195.631,316.600 195.752,316.600 205.713 L 316.600 215.000 319.106 215.000 C 323.224 215.000,323.600 215.344,323.600 219.110 L 323.600 221.440 322.920 222.120 L 322.240 222.800 316.210 222.800 C 309.667 222.800,309.314 222.748,308.839 221.706 C 308.519 221.003,308.494 196.372,308.813 195.776 C 309.466 194.555,313.973 194.037,315.555 195.001 M338.998 194.899 C 340.241 195.542,340.200 195.178,340.200 205.545 L 340.200 215.000 342.706 215.000 C 346.839 215.000,347.200 215.308,347.200 218.835 C 347.200 222.940,347.469 222.800,339.590 222.800 L 333.560 222.800 332.880 222.120 L 332.200 221.440 332.200 208.910 C 332.200 195.222,332.173 195.553,333.353 194.913 C 334.126 194.493,338.194 194.483,338.998 194.899 M362.704 194.915 C 364.029 195.544,364.000 195.232,364.000 208.687 C 364.000 223.938,364.332 222.800,359.882 222.800 C 355.461 222.800,355.763 223.885,355.840 208.266 L 355.900 196.032 356.400 195.494 C 357.287 194.540,361.163 194.184,362.704 194.915 M152.619 201.890 C 144.909 204.395,146.699 215.883,154.800 215.893 C 164.103 215.905,164.396 202.014,155.100 201.664 C 154.096 201.626,153.172 201.710,152.619 201.890 " stroke="none" fill="#fbfbfb" fill-rule="evenodd"></path></g></svg>